<svg width="40" height="40" viewBox="0 0 40 40" fill="none" xmlns="http://www.w3.org/2000/svg">
<path d="M20 40C31.0457 40 40 31.0457 40 20C40 8.95431 31.0457 0 20 0C8.95431 0 0 8.95431 0 20C0 31.0457 8.95431 40 20 40Z" fill="#747480" fill-opacity="0.06"/>
<path d="M27.7292 19.9C28.0103 17.9597 28.1398 16.962 27.7823 16.0744C27.4131 15.158 26.5941 14.531 24.956 13.277L23.7322 12.34C21.6945 10.78 20.6756 10 19.5 10C18.3244 10 17.3055 10.78 15.2678 12.34L14.044 13.277C12.4059 14.531 11.5869 15.158 11.2177 16.0744C10.8486 16.9909 10.9986 18.0246 11.2987 20.0921L11.5546 21.8552C11.9799 24.786 12.1926 26.2515 13.1853 27.1257C14.1781 28 15.6294 28 18.532 28H19" stroke="#731982" stroke-width="1.5" stroke-linecap="round" stroke-linejoin="round"/>
<path d="M21 24.4778C22.1488 23.5431 23.5209 23 24.9946 23C26.4729 23 27.849 23.5466 29 24.4866M27.1743 27C26.5182 26.5909 25.7779 26.3607 24.9946 26.3607C24.2152 26.3607 23.4784 26.5886 22.8248 26.9938" stroke="#731982" stroke-width="1.5" stroke-linecap="round"/>
<path d="M25 30H25.0064" stroke="#731982" stroke-width="2" stroke-linecap="round" stroke-linejoin="round"/>
</svg>
