<svg width="40" height="40" viewBox="0 0 40 40" fill="none" xmlns="http://www.w3.org/2000/svg">
<path d="M20 40C31.0457 40 40 31.0457 40 20C40 8.9543 31.0457 0 20 0C8.9543 0 0 8.9543 0 20C0 31.0457 8.9543 40 20 40Z" fill="#747480" fill-opacity="0.06"/>
<path d="M11 19.8583C11 15.2819 11 12.9937 12.3867 11.5439C12.438 11.4903 12.4904 11.4379 12.5439 11.3867C13.9938 9.99994 16.282 9.99994 20.8584 9.99994C21.943 9.99994 22.4655 10.0037 22.9628 10.1893C23.4417 10.368 23.8429 10.7023 24.6452 11.3709L26.8411 13.2009C27.9027 14.0855 28.4335 14.5279 28.7168 15.1326C29 15.7373 29 16.4283 29 17.8102V20.9999C29 24.7496 29 26.6245 28.0451 27.9388C27.7367 28.3633 27.3634 28.7366 26.9389 29.045C25.6246 29.9999 23.7497 29.9999 20 29.9999C16.2503 29.9999 14.3754 29.9999 13.0611 29.045C12.6366 28.7366 12.2633 28.3633 11.9549 27.9388C11 26.6245 11 24.7496 11 20.9999V19.8583Z" stroke="#731982" stroke-width="1.5"/>
<path d="M15 22.4999C15 24.1498 15 24.9748 15.4393 25.4873C15.8787 25.9999 16.5858 25.9999 18 25.9999H22C23.4142 25.9999 24.1213 25.9999 24.5607 25.4873C25 24.9748 25 24.1498 25 22.4999M15 22.4999C15 20.85 15 20.025 15.4393 19.5125C15.8787 18.9999 16.5858 18.9999 18 18.9999H22C23.4142 18.9999 24.1213 18.9999 24.5607 19.5125C25 20.025 25 20.85 25 22.4999M15 22.4999H17M25 22.4999H23" stroke="#731982" stroke-width="1.5" stroke-linecap="round" stroke-linejoin="round"/>
</svg>
