<svg width="28" height="28" viewBox="0 0 28 28" fill="none" xmlns="http://www.w3.org/2000/svg">
<g clip-path="url(#clip0_1_3194)">
<rect width="28" height="28" rx="14" fill="#00B956"/>
<g clip-path="url(#clip1_1_3194)">
<path d="M-14 0.00247192H42V28.0025H-14V0.00247192Z" fill="#006600"/>
<path d="M-14 0.00247192H42V20.0025H-14V0.00247192Z" fill="white"/>
<path d="M-14 0.00247192H42V8.00247H-14V0.00247192Z" fill="#CC0000"/>
<path d="M12.8803 13.616C12.9349 13.5221 13.0186 13.4486 13.1187 13.4065C13.2189 13.3644 13.33 13.356 13.4353 13.3827C13.5406 13.4093 13.6343 13.4696 13.7024 13.5542C13.7704 13.6389 13.809 13.7435 13.8123 13.852V15.852H14.1883V13.852C14.1916 13.7435 14.2302 13.6389 14.2983 13.5542C14.3663 13.4696 14.46 13.4093 14.5653 13.3827C14.6706 13.356 14.7818 13.3644 14.8819 13.4065C14.982 13.4486 15.0657 13.5221 15.1203 13.616C15.1791 13.4387 15.195 13.2499 15.1666 13.0653C15.1382 12.8806 15.0664 12.7054 14.9571 12.5539C14.8477 12.4024 14.704 12.279 14.5376 12.194C14.3713 12.1089 14.1871 12.0645 14.0003 12.0645C13.8135 12.0645 13.6293 12.1089 13.463 12.194C13.2967 12.279 13.1529 12.4024 13.0436 12.5539C12.9342 12.7054 12.8624 12.8806 12.834 13.0653C12.8056 13.2499 12.8215 13.4387 12.8803 13.616Z" fill="#F8C300"/>
<path d="M13.1484 13.0967C13.3126 13.0631 13.4831 13.0819 13.6359 13.1505C13.7888 13.219 13.9163 13.3338 14.0004 13.4787C14.0846 13.3338 14.2121 13.219 14.3649 13.1505C14.5178 13.0819 14.6883 13.0631 14.8524 13.0967C14.8242 12.8908 14.7223 12.7021 14.5657 12.5655C14.409 12.4289 14.2083 12.3537 14.0004 12.3537C13.7926 12.3537 13.5918 12.4289 13.4352 12.5655C13.2786 12.7021 13.1767 12.8908 13.1484 13.0967Z" fill="white"/>
<path d="M13.8143 15.0568C13.7888 15.3406 13.684 15.6115 13.512 15.8386C13.34 16.0657 13.1076 16.2399 12.8413 16.3413C12.5751 16.4427 12.2857 16.4672 12.0062 16.4121C11.7267 16.3569 11.4683 16.2244 11.2605 16.0294C11.1717 16.2523 11.0333 16.4521 10.8558 16.6135C10.6783 16.775 10.4664 16.8939 10.2361 16.9612C10.0058 17.0285 9.7632 17.0425 9.52669 17.0022C9.29019 16.9618 9.06599 16.8681 8.87109 16.7281C9.01708 18.1852 11.2012 17.8877 11.3639 16.471C12.0501 17.6756 13.5588 17.3306 14.0003 15.855L13.8143 15.0568Z" fill="#F8C300"/>
<path d="M14.1897 15.0568C14.2151 15.3406 14.3199 15.6115 14.4919 15.8386C14.6639 16.0657 14.8963 16.2399 15.1626 16.3413C15.4288 16.4427 15.7182 16.4672 15.9977 16.4121C16.2773 16.3569 16.5357 16.2244 16.7435 16.0294C16.8322 16.2523 16.9706 16.4521 17.1481 16.6135C17.3256 16.775 17.5375 16.8939 17.7678 16.9612C17.9981 17.0285 18.2407 17.0425 18.4772 17.0022C18.7137 16.9618 18.9379 16.8681 19.1328 16.7281C18.9868 18.1852 16.8027 17.8877 16.64 16.471C15.9539 17.6756 14.4451 17.3306 14.0036 15.855L14.1897 15.0568Z" fill="#F8C300"/>
<path d="M12.3528 17.6377C12.0481 18.2955 11.439 18.4085 10.9062 17.8775C10.9062 17.8775 11.1204 17.7262 11.3497 17.6845C11.3067 17.5015 11.3949 17.2484 11.5191 17.1115C11.6494 17.2006 11.8312 17.3791 11.8775 17.5865C12.1987 17.5449 12.3528 17.6377 12.3528 17.6377Z" fill="#F8C300"/>
<path d="M14.74 17.5654C14.3323 18.1649 13.7129 18.1772 13.2737 17.5665C13.2737 17.5665 13.5097 17.4521 13.7427 17.4482C13.73 17.2607 13.8582 17.0253 14.0031 16.9105C14.1172 17.0196 14.2675 17.2253 14.2794 17.4375C14.603 17.4487 14.74 17.5654 14.74 17.5654Z" fill="#F8C300"/>
<path d="M17.1032 17.8831C16.6032 18.4082 15.9902 18.3195 15.6562 17.6455C15.6562 17.6455 15.9077 17.571 16.1382 17.6052C16.1563 17.4181 16.3211 17.2067 16.4827 17.117C16.5775 17.2432 16.6924 17.4706 16.6695 17.6819C16.987 17.7457 17.1032 17.8831 17.1032 17.8831Z" fill="#F8C300"/>
<path d="M10.1211 19.1065C12.6529 18.3529 15.3493 18.3529 17.8811 19.1065" stroke="#F8C300" stroke-width="0.64"/>
<path d="M13.0511 9.2822H14.9532L13.4143 10.4002L14.0021 8.59122L14.5899 10.4002L13.0511 9.2822Z" fill="#F8C300"/>
<path d="M10.252 10.033H12.1541L10.6152 11.151L11.203 9.34201L11.7908 11.151L10.252 10.033Z" fill="#F8C300"/>
<path d="M8.20117 12.0838H10.1033L8.56444 13.2018L9.15223 11.3928L9.74001 13.2018L8.20117 12.0838Z" fill="#F8C300"/>
<path d="M7.45117 14.8846H9.35328L7.81444 16.0027L8.40223 14.1937L8.99001 16.0027L7.45117 14.8846Z" fill="#F8C300"/>
<path d="M17.7518 10.033H15.8497L17.3885 11.151L16.8007 9.34201L16.2129 11.151L17.7518 10.033Z" fill="#F8C300"/>
<path d="M19.8006 12.0838H17.8985L19.4373 13.2018L18.8495 11.3928L18.2618 13.2018L19.8006 12.0838Z" fill="#F8C300"/>
<path d="M20.5526 14.8846H18.6504L20.1893 16.0027L19.6015 14.1937L19.0137 16.0027L20.5526 14.8846Z" fill="#F8C300"/>
</g>
</g>
<defs>
<clipPath id="clip0_1_3194">
<rect width="28" height="28" rx="14" fill="white"/>
</clipPath>
<clipPath id="clip1_1_3194">
<rect width="56" height="28" fill="white" transform="translate(-14 0.00125122)"/>
</clipPath>
</defs>
</svg>
