<svg width="128" height="128" viewBox="0 0 128 128" fill="none" xmlns="http://www.w3.org/2000/svg">
<rect width="128" height="128" rx="32" fill="url(#paint0_linear_1_3179)"/>
<path d="M107.75 68.8643C107.75 69.3996 107.741 69.8255 107.72 70.2429C107.665 71.3226 106.773 72.1341 105.737 72.1341H90.3972C90.4937 75.4039 92.4699 77.2149 95.7477 77.2149C97.3998 77.2149 98.6342 76.8045 99.4331 75.9837C100.023 75.3779 100.723 74.8003 101.551 74.8003H105.041C106.288 74.8003 107.254 75.9845 106.709 77.1546C105.049 80.7169 100.96 83 95.8441 83C87.9389 83 83.0705 78.221 83.0705 70.1219C83.0705 62.1737 88.0353 57.2941 95.6031 57.2941C102.833 57.2941 107.75 62.0228 107.75 68.8643ZM90.3972 67.5563H100.471C100.471 64.3368 98.688 62.3749 95.6031 62.3749C92.4699 62.3749 90.3972 64.538 90.3972 67.5563Z" fill="white"/>
<path d="M22.5119 82.995C21.2627 82.995 20.25 81.9872 20.25 80.7441V47.8912C20.25 46.6481 21.2627 45.6404 22.5119 45.6404H26.6755C27.9247 45.6404 28.9374 46.6481 28.9374 47.8912V75.3106H40.6183C41.8675 75.3106 42.8802 76.3183 42.8802 77.5614V80.7441C42.8802 81.9872 41.8675 82.995 40.6183 82.995H22.5119Z" fill="white"/>
<path d="M78.5746 51.4036C76.805 51.4036 74.8208 51.8306 74.8208 54.6588V57.2737H78.565C79.8142 57.2737 80.8269 58.2814 80.8269 59.5245V61.4798C80.8269 62.7229 79.8142 63.7307 78.565 63.7307H74.8208V80.7441C74.8208 81.9872 73.8081 82.995 72.5589 82.995H68.8779C67.6287 82.995 66.616 81.9872 66.616 80.7441V63.7307H64.2661C63.0169 63.7307 62.0042 62.7229 62.0042 61.4798V59.5245C62.0042 58.2814 63.0169 57.2737 64.2661 57.2737H66.616V54.7656C66.616 46.8677 72.2468 45.1601 76.1078 45.1601C77.3537 45.1601 78.3757 45.2458 79.2129 45.3783C80.1875 45.5325 80.8269 46.4147 80.8269 47.3967V49.316C80.8269 50.534 79.7986 51.4036 78.5746 51.4036Z" fill="white"/>
<path fill-rule="evenodd" clip-rule="evenodd" d="M47.9382 50.0162C47.9382 52.7911 50.0833 55.0324 53.0327 55.0324C56.0358 55.0324 58.1272 52.7911 58.1272 50.0162C58.1272 47.2946 56.0358 45 53.0327 45C50.0833 45 47.9382 47.2946 47.9382 50.0162Z" fill="white"/>
<path d="M51.1654 82.995C49.9162 82.995 48.9035 81.9872 48.9035 80.7441V59.5245C48.9035 58.2814 49.9162 57.2737 51.1654 57.2737H54.8464C56.0956 57.2737 57.1083 58.2814 57.1083 59.5245V80.7441C57.1083 81.9872 56.0956 82.995 54.8464 82.995H51.1654Z" fill="white"/>
<defs>
<linearGradient id="paint0_linear_1_3179" x1="64" y1="128" x2="64" y2="-2.83697e-07" gradientUnits="userSpaceOnUse">
<stop stop-color="#01873F"/>
<stop offset="0.73997" stop-color="#00B956"/>
<stop offset="1" stop-color="#14CD6A"/>
</linearGradient>
</defs>
</svg>
