<svg width="40" height="40" viewBox="0 0 40 40" fill="none" xmlns="http://www.w3.org/2000/svg">
<path d="M20 40C31.0457 40 40 31.0457 40 20C40 8.95431 31.0457 0 20 0C8.95431 0 0 8.95431 0 20C0 31.0457 8.95431 40 20 40Z" fill="#747480" fill-opacity="0.06"/>
<path d="M30 18.5V17.7175C30 15.7779 30 14.8081 29.4142 14.2055C28.8284 13.6029 27.8856 13.6029 26 13.6029H23.9214C23.004 13.6029 22.9964 13.6012 22.1715 13.1883L18.8399 11.5211C17.4488 10.825 16.7533 10.477 16.0124 10.5012C15.2714 10.5254 14.5988 10.9181 13.2534 11.7035L12.0256 12.4204C11.0374 12.9973 10.5433 13.2858 10.2716 13.7656C10 14.2455 10 14.8299 10 15.9987V24.2157C10 25.7514 10 26.5193 10.3423 26.9467C10.57 27.231 10.8892 27.4222 11.242 27.4856C11.7723 27.5808 12.4215 27.2018 13.7199 26.4437C14.6016 25.929 15.4501 25.3944 16.5049 25.5394C17.3887 25.6608 18.21 26.2185 19 26.6138" stroke="#731982" stroke-width="1.5" stroke-linecap="round" stroke-linejoin="round"/>
<path d="M16 10.5V25.5" stroke="#731982" stroke-width="1.5" stroke-linejoin="round"/>
<path d="M23 13.5V17.5" stroke="#731982" stroke-width="1.5" stroke-linecap="round" stroke-linejoin="round"/>
<path d="M25.5 20C27.9353 20 30 22.0165 30 24.4629C30 26.9482 27.9017 28.6924 25.9635 29.8783C25.8223 29.9581 25.6625 30 25.5 30C25.3375 30 25.1777 29.9581 25.0365 29.8783C23.1019 28.6808 21 26.9568 21 24.4629C21 22.0165 23.0647 20 25.5 20Z" stroke="#731982" stroke-width="1.5"/>
<path d="M25.5 24.5H25.509" stroke="#731982" stroke-width="2" stroke-linecap="round" stroke-linejoin="round"/>
</svg>
